<?xml version="1.0" encoding="UTF-8" standalone="no"?>
<svg
   xmlns:dc="http://purl.org/dc/elements/1.1/"
   xmlns:cc="http://creativecommons.org/ns#"
   xmlns:rdf="http://www.w3.org/1999/02/22-rdf-syntax-ns#"
   xmlns:svg="http://www.w3.org/2000/svg"
   xmlns="http://www.w3.org/2000/svg"
   xmlns:sodipodi="http://sodipodi.sourceforge.net/DTD/sodipodi-0.dtd"
   xmlns:inkscape="http://www.inkscape.org/namespaces/inkscape"
   inkscape:export-ydpi="129.34738"
   inkscape:export-xdpi="129.34738"
   inkscape:export-filename="C:\Users\phili\OneDrive - Swisscom\_Mobile ID Doc &amp; Slides\Stylebook and Logos\App Logo SVG\mobileid-app-icon-l.png"
   height="380"
   width="380"
   inkscape:version="1.0 (4035a4fb49, 2020-05-01)"
   sodipodi:docname="mobileid-app-icon.svg"
   xml:space="preserve"
   viewBox="0 0 380.00001 380.00001"
   y="0px"
   x="0px"
   id="Layer_1"
   version="1.1"><metadata
   id="metadata11"><rdf:RDF><cc:Work
       rdf:about=""><dc:format>image/svg+xml</dc:format><dc:type
         rdf:resource="http://purl.org/dc/dcmitype/StillImage" /><dc:title></dc:title></cc:Work></rdf:RDF></metadata><defs
   id="defs9"><filter
     height="1.0000216"
     y="-1.08e-05"
     width="1.0000216"
     x="-1.08e-05"
     id="filter1218"
     style="color-interpolation-filters:sRGB"
     inkscape:collect="always"><feGaussianBlur
       id="feGaussianBlur1220"
       stdDeviation="0.0017083757"
       inkscape:collect="always" /></filter></defs><sodipodi:namedview
   inkscape:showpageshadow="false"
   borderlayer="true"
   inkscape:pagecheckerboard="true"
   lock-margins="true"
   inkscape:current-layer="layer7"
   inkscape:window-maximized="1"
   inkscape:window-y="-8"
   inkscape:window-x="-8"
   inkscape:cy="172.68523"
   inkscape:cx="217.37138"
   inkscape:zoom="2.2776281"
   showgrid="false"
   id="namedview7"
   inkscape:window-height="1547"
   inkscape:window-width="3840"
   inkscape:pageshadow="2"
   inkscape:pageopacity="0"
   guidetolerance="10"
   gridtolerance="10"
   objecttolerance="10"
   borderopacity="1"
   bordercolor="#666666"
   pagecolor="#ffffff"
   inkscape:document-rotation="0" />
<style
   id="style2"
   type="text/css">
	.st0{fill:#A70064;}
</style>

<g
   style="display:inline;filter:url(#filter1218)"
   inkscape:label="Background"
   id="layer1"
   inkscape:groupmode="layer"><rect
     style="fill:#009490;fill-opacity:1;stroke:#009490;stroke-width:0.360969;stroke-miterlimit:4;stroke-dasharray:none;stroke-opacity:1"
     id="rect860"
     width="379.63904"
     height="379.63904"
     x="0.13047791"
     y="0.13047791" /></g><g
   style="display:inline"
   inkscape:label="Logo (inner color)"
   id="layer3"
   inkscape:groupmode="layer"><rect
     style="display:inline;fill:#ffffff;fill-opacity:1;stroke:#ffffff;stroke-width:0.44059;stroke-miterlimit:4;stroke-dasharray:none;stroke-opacity:1"
     id="rect894"
     width="299.55942"
     height="299.55939"
     x="40.170288"
     y="40.170303" /></g><g
   style="display:inline"
   inkscape:label="Logo (outer color)"
   id="layer2"
   inkscape:groupmode="layer"><path
     style="fill:#009490;fill-opacity:1;stroke:#009490;stroke-width:0.37725;stroke-miterlimit:4;stroke-dasharray:none;stroke-opacity:1"
     d="M 45.820897,379.52309 C 36.040643,378.89398 25.977742,374.50145 17.645674,367.22444 8.4205139,359.16744 1.8064689,346.88073 0.65353784,335.65869 -0.03423781,328.9643 -0.03246646,51.484404 0.65553937,44.78586 1.7381768,34.242797 6.9924625,23.684443 15.256669,15.445275 22.515606,8.2083124 31.072706,3.5206835 41.483553,1.0780484 44.152453,0.4518659 52.498261,0.4065604 189.13355,0.27650719 l 144.8212,-0.1378476 3.72609,0.79760903 c 21.58003,4.61947048 36.81812,19.83591538 41.53308,41.47410538 0.56543,2.594881 0.60684,14.8535 0.50187,148.576286 -0.1079,137.43701 -0.15208,145.88785 -0.77474,148.19921 -1.36851,5.07977 -2.68833,8.60999 -4.70083,12.57348 -6.79384,13.38001 -18.40996,22.70946 -33.48739,26.89528 l -3.75409,1.04223 -143.32581,0.0586 c -78.82923,0.0324 -145.362589,-0.0722 -147.851932,-0.2324 z M 213.66297,303.34478 c 12.58696,-1.19327 27.96639,-5.65094 40.35753,-11.69748 29.8912,-14.58608 52.60952,-40.29335 63.38793,-71.72761 4.75449,-13.86603 6.38942,-24.12032 6.38668,-40.05739 -0.002,-10.59851 -0.28211,-13.48984 -2.12041,-21.87164 C 316.57682,134.7466 303.86795,114.44705 284.63699,98.831227 268.36873,85.621154 246.06512,77.185343 225.71674,76.546024 222.40629,76.442016 199.96687,76.268574 175.85135,76.1606 l -43.84637,-0.196314 0.0118,42.144484 c 0.0126,45.08678 0.26468,55.56235 1.4646,60.8688 2.62161,11.59371 9.0675,24.33972 16.79204,33.20431 8.00176,9.18273 19.37353,16.31728 28.40673,17.82213 l 1.60298,0.26705 v -52.82674 -52.82676 l 20.08448,0.001 c 11.04645,7.5e-4 22.03634,0.17828 24.42196,0.3946 14.52493,1.31711 26.62387,7.48249 36.6319,18.66687 5.34765,5.97625 8.53699,11.45038 10.97939,18.84493 1.92078,5.81532 2.58355,9.39895 2.82279,15.26301 1.30685,32.03215 -18.44748,61.60804 -48.7368,72.96807 -4.85006,1.81902 -12.56601,3.76159 -17.28178,4.35086 -4.77018,0.59608 -17.78748,0.28451 -23.61607,-0.56525 -21.46097,-3.12886 -41.18072,-14.82178 -54.2339,-32.15827 -8.91424,-11.8394 -14.39315,-24.33596 -18.22553,-41.56976 -2.14384,-9.64058 -2.80087,-11.51341 -5.27472,-15.03534 -3.22114,-4.5858 -8.496025,-8.26187 -13.842891,-9.6471 -2.910054,-0.75393 -8.694565,-0.76419 -11.620311,-0.0206 -4.377436,1.1125 -7.630292,3.03004 -11.117207,6.55355 -3.614012,3.65195 -5.186453,6.39573 -6.412861,11.19 -1.348941,5.27322 -0.791645,10.92668 2.280112,23.1305 8.542319,33.93783 26.78271,62.14359 52.574068,81.29713 18.13339,13.46647 40.9108,22.32846 64.33911,25.03239 4.08592,0.47157 24.73085,0.49274 29.60809,0.0303 z M 95.869488,143.59222 c 9.195512,-3.21555 16.268142,-10.6223 19.208052,-20.11546 0.74269,-2.39819 0.87293,-3.63448 0.87293,-8.28662 0,-4.65216 -0.13024,-5.88845 -0.87293,-8.28664 -2.87064,-9.269493 -9.66123,-16.512391 -18.702385,-19.948119 -3.131433,-1.189972 -3.828176,-1.309425 -8.5969,-1.473862 -5.873379,-0.202532 -8.489779,0.175233 -12.632885,1.823993 -3.590645,1.428903 -6.500218,3.322105 -9.460531,6.155773 -4.137622,3.960602 -6.775708,8.179465 -8.405514,13.442215 -1.270501,4.10256 -1.270501,12.4707 0,16.57326 3.063711,9.89295 10.804678,17.57828 20.789889,20.64046 2.535629,0.77761 3.434665,0.85477 8.67498,0.74458 5.370034,-0.11291 6.113262,-0.21631 9.125294,-1.26958 z"
     id="path856" /></g><g
   style="display:inline"
   inkscape:label="Monitoring"
   id="layer7"
   inkscape:groupmode="layer" /><g
   style="display:inline"
   inkscape:label="Build Version"
   id="layer4"
   inkscape:groupmode="layer"><g
     style="display:none"
     inkscape:label="PreProd"
     id="layer5"
     inkscape:groupmode="layer"><text
       xml:space="preserve"
       style="font-style:normal;font-weight:normal;font-size:111.347px;line-height:1.25;font-family:sans-serif;fill:#000000;fill-opacity:1;stroke:none;stroke-width:0.759179"
       x="238.26021"
       y="333.07913"
       id="text920"><tspan
         sodipodi:role="line"
         id="tspan918"
         x="238.26021"
         y="333.07913"
         style="font-size:111.347px;fill:#ffffff;stroke-width:0.759179">Ⓟ</tspan></text></g><g
     inkscape:groupmode="layer"
     id="g948"
     inkscape:label="Lab"
     style="display:inline" /></g></svg>
