<?xml version="1.0" encoding="UTF-8" standalone="no"?>
<svg
   xmlns:dc="http://purl.org/dc/elements/1.1/"
   xmlns:cc="http://creativecommons.org/ns#"
   xmlns:rdf="http://www.w3.org/1999/02/22-rdf-syntax-ns#"
   xmlns:svg="http://www.w3.org/2000/svg"
   xmlns="http://www.w3.org/2000/svg"
   xmlns:sodipodi="http://sodipodi.sourceforge.net/DTD/sodipodi-0.dtd"
   xmlns:inkscape="http://www.inkscape.org/namespaces/inkscape"
   version="1.1"
   id="Layer_1"
   x="0px"
   y="0px"
   viewBox="0 0 1920 380.00001"
   xml:space="preserve"
   sodipodi:docname="mobileid-colors.svg"
   width="1920"
   height="380"
   inkscape:version="1.0 (4035a4fb49, 2020-05-01)"><metadata
   id="metadata58"><rdf:RDF><cc:Work
       rdf:about=""><dc:format>image/svg+xml</dc:format><dc:type
         rdf:resource="http://purl.org/dc/dcmitype/StillImage" /><dc:title /></cc:Work></rdf:RDF></metadata><defs
   id="defs56" /><sodipodi:namedview
   inkscape:document-rotation="0"
   pagecolor="#ffffff"
   bordercolor="#666666"
   borderopacity="1"
   objecttolerance="10"
   gridtolerance="10"
   guidetolerance="10"
   inkscape:pageopacity="0"
   inkscape:pageshadow="2"
   inkscape:window-width="1918"
   inkscape:window-height="1538"
   id="namedview54"
   showgrid="false"
   inkscape:zoom="0.44562459"
   inkscape:cx="1254.8108"
   inkscape:cy="54.431376"
   inkscape:window-x="1913"
   inkscape:window-y="0"
   inkscape:window-maximized="0"
   inkscape:current-layer="layer2" />
<style
   type="text/css"
   id="style35">
	.st0{fill:#009490;}
	.st1{fill:#A70064;}
</style>








<g
   inkscape:groupmode="layer"
   id="layer2"
   inkscape:label="Main Logo"
   style="display:inline"><path
     style="display:inline;opacity:0.8;fill:#ffffff;fill-opacity:1;stroke:none;stroke-width:2.45718"
     d="M 1.228607,1.22859 H 1918.7714 V 378.77141 H 1.228607 Z"
     id="rect60-6" /><path
     id="path37"
     d="m 1126.6279,0.04151178 v 0 c -20.3,0 -37,16.60000022 -37,37.00000022 V 342.84151 c 0,20.29999 16.6,36.99999 37,36.99999 v 0 c 20.3,0 37,-16.6 37,-36.99999 V 37.041512 c 0,-20.3 -16.6,-37.00000022 -37,-37.00000022 z"
     class="st0"
     style="fill:#009490;fill-opacity:1" /><path
     id="path39"
     d="m 1020.5279,150.54151 c -20.3,0 -36.99996,16.6 -36.99996,37 v 155.3 c 0,20.29999 16.59996,36.99999 36.99996,36.99999 20.3,0 37,-16.6 37,-36.99999 v -155.3 c -0.1,-20.4 -16.7,-37 -37,-37 z"
     class="st0"
     style="fill:#009490;fill-opacity:1" /><path
     id="path41"
     d="m 550.82793,140.64151 c -66,0 -119.59999,53.5 -119.59999,119.6 0,66.1 53.59999,119.59999 119.59999,119.59999 66,0 119.60001,-53.49999 119.60001,-119.59999 0,-66.1 -53.60001,-119.6 -119.60001,-119.6 z m 0,175.1 c -30.6,0 -55.5,-24.8 -55.5,-55.5 0,-30.7 24.8,-55.5 55.5,-55.5 30.6,0 55.5,24.8 55.5,55.5 0,30.7 -24.9,55.5 -55.5,55.5 z"
     class="st0"
     style="fill:#009490;fill-opacity:1" /><path
     id="path43"
     d="m 831.92794,140.64151 c -20,0 -38.9,4.9 -55.5,13.7 V 37.141512 c 0,-20.3 -16.6,-37.00000022 -37,-37.00000022 -20.4,0 -37,16.60000022 -37,37.00000022 V 342.84151 c 0,20.29999 16.6,36.99999 37,36.99999 13,0 24.4,-6.8 31,-17 18,10.8 39,17 61.4,17 66,0 119.6,-53.49999 119.6,-119.59999 0,-66.1 -53.5,-119.6 -119.5,-119.6 z m 0,175.1 c -30.6,0 -55.5,-24.8 -55.5,-55.5 0,-30.7 24.8,-55.5 55.5,-55.5 30.6,0 55.5,24.8 55.5,55.5 0,30.7 -24.9,55.5 -55.5,55.5 z"
     class="st0"
     style="fill:#009490;fill-opacity:1" /><path
     id="path45"
     d="m 280.82794,140.64151 c -31.5,0 -60.1,10.9 -81.4,30.7 -20.1,-19.8 -49.9,-30.7 -81.4,-30.7 -65.2,0 -118.20000008,53 -118.20000008,125.5 v 77.1 c 0,20.29999 16.50000008,36.79999 36.80000008,36.79999 20.3,0 36.8,-16.5 36.8,-36.79999 v -77.1 c 0,-28.6 20,-51.9 44.6,-51.9 24.6,0 44.6,23.3 44.6,51.9 v 77.1 c 0,20.29999 16.5,36.79999 36.8,36.79999 20.3,0 36.8,-16.5 36.8,-36.79999 v -77.1 c 0,-28.6 20,-51.9 44.6,-51.9 24.6,0 44.6,23.3 44.6,51.9 v 77.1 c 0,20.29999 16.5,36.79999 36.8,36.79999 v 0 c 20.3,0 36.8,-16.5 36.8,-36.79999 v -77.1 c 0,-71.9 -53,-125.5 -118.2,-125.5 z"
     class="st0"
     style="fill:#009490;fill-opacity:1" /><circle
     id="circle47"
     r="45.099998"
     cy="95.541512"
     cx="1020.028"
     class="st0"
     style="fill:#009490;fill-opacity:1" /><path
     id="path49"
     d="m 1432.5279,259.04151 c 0,-22.2 -4.9,-39.4 -4.9,-39.4 v 0 c -0.4,-1.5 -0.9,-3.1 -1.5,-4.6 -18.4,-45 -63.5,-76.3 -115.7,-74.2 -61.8,2.5 -112.1,52.9 -114.5,114.8 -2.6,68.2 51.9,124.29999 119.5,124.29999 17.2,0 33.5,-3.6 48.3,-10.2 20.5,-9.1 25.4,-36.09999 9.6,-51.89999 v 0 c -9.3,-9.3 -23.4,-12.1 -35.4,-6.7 -8.5,3.8 -18.1,5.5 -28.2,4.5 -16.2,-1.6 -30.5,-10.4 -39.5,-23.1 h 130.3 c 17.6,0 32,-14.4 32,-32 0,-0.7 0,-1.1 0,-1.5 z m -162.4,-30.9 c 10,-14.2 26.6,-23.4 45.3,-23.4 18.7,0 35.2,9.3 45.3,23.4 z"
     class="st0"
     style="fill:#009490;fill-opacity:1" /><path
     id="path51"
     d="m 1868.1279,0.14151178 h -276.4 c -28.5,0 -51.7,23.30000022 -51.7,51.70000022 V 328.24151 c 0,28.49999 23.3,51.69999 51.7,51.69999 h 276.4 c 28.5,0 51.7,-23.3 51.7,-51.69999 V 51.841512 c 0,-28.4 -23.3,-51.70000022 -51.7,-51.70000022 z m -241.9,84.90000022 c 16.6,0 30.1,13.5 30.1,30.099998 0,16.6 -13.5,30.1 -30.1,30.1 -16.6,0 -30.1,-13.5 -30.1,-30.1 0,-16.599998 13.4,-30.099998 30.1,-30.099998 z m 113.6,218.999998 c -39.7,0 -75.5,-15.9 -100.8,-44.7 -18.1,-20.6 -30.1,-46.9 -34.8,-75.8 -2.4,-14.8 8.9,-28.3 23.9,-28.3 12.1,0 22.1,8.9 24,20.8 7.6,47.7 41.6,79.5 87.7,79.5 41.6,0 75.4,-33.8 75.4,-75.4 0,-30.6 -24.9,-55.5 -55.5,-55.5 0,0 -0.1,0 -0.1,0 h -39.3 v 39.6 c 0,0.1 0,0.2 0,0.3 v 49.4 16.3 c -25.1,-3.5 -48.5,-34.2 -48.5,-65.2 V 76.041512 h 87 v 0 c 0,0 0,0 0,0 57.8,-0.6 105.1,46.299998 105.1,103.999998 -0.2,68.4 -55.8,124 -124.1,124 z"
     class="st1"
     style="fill:#a70064;fill-opacity:1" /></g></svg>
